<svg width="30" height="30" viewBox="0 0 30 30" fill="none" xmlns="http://www.w3.org/2000/svg">
<g id="filter">
<path id="Vector" d="M27.6558 9.84375H2.34326C1.9703 9.84375 1.61262 9.69559 1.34889 9.43187C1.08517 9.16815 0.937012 8.81046 0.937012 8.4375C0.937012 8.06454 1.08517 7.70685 1.34889 7.44313C1.61262 7.17941 1.9703 7.03125 2.34326 7.03125H27.6558C28.0287 7.03125 28.3864 7.17941 28.6501 7.44313C28.9139 7.70685 29.062 8.06454 29.062 8.4375C29.062 8.81046 28.9139 9.16815 28.6501 9.43187C28.3864 9.69559 28.0287 9.84375 27.6558 9.84375Z" fill="black"/>
<path id="Vector_2" d="M22.9689 16.4067H7.03137C6.65841 16.4067 6.30073 16.2586 6.037 15.9949C5.77328 15.7311 5.62512 15.3734 5.62512 15.0005C5.62512 14.6275 5.77328 14.2698 6.037 14.0061C6.30073 13.7424 6.65841 13.5942 7.03137 13.5942H22.9689C23.3418 13.5942 23.6995 13.7424 23.9632 14.0061C24.227 14.2698 24.3751 14.6275 24.3751 15.0005C24.3751 15.3734 24.227 15.7311 23.9632 15.9949C23.6995 16.2586 23.3418 16.4067 22.9689 16.4067Z" fill="black"/>
<path id="Vector_3" d="M17.3441 22.9696H12.656C12.2829 22.9696 11.9252 22.8215 11.6615 22.5577C11.3977 22.2939 11.2495 21.9362 11.2495 21.5632C11.2495 21.1902 11.3977 20.8324 11.6615 20.5687C11.9252 20.3049 12.2829 20.1567 12.656 20.1567H17.3441C17.7171 20.1567 18.0749 20.3049 18.3386 20.5687C18.6024 20.8324 18.7506 21.1902 18.7506 21.5632C18.7506 21.9362 18.6024 22.2939 18.3386 22.5577C18.0749 22.8215 17.7171 22.9696 17.3441 22.9696Z" fill="black"/>
</g>
</svg>
