<svg width="40" height="40" viewBox="0 0 40 40" fill="none" xmlns="http://www.w3.org/2000/svg">
<g id="happy">
<path id="Vector" d="M14.3835 20.0176C15.4241 20.0176 16.2676 19.1741 16.2676 18.1335C16.2676 17.093 15.4241 16.2495 14.3835 16.2495C13.343 16.2495 12.4995 17.093 12.4995 18.1335C12.4995 19.1741 13.343 20.0176 14.3835 20.0176Z" fill="#FF8000"/>
<path id="Vector_2" d="M20.0048 29.999C16.4559 29.999 13.4711 27.6917 12.5264 24.5428C12.5 24.4491 12.4958 24.3505 12.5142 24.2549C12.5326 24.1593 12.5731 24.0693 12.6325 23.9921C12.6918 23.9149 12.7684 23.8527 12.8561 23.8103C12.9437 23.768 13.0401 23.7467 13.1374 23.7481H26.8652C26.9625 23.7467 27.0588 23.768 27.1465 23.8103C27.2342 23.8527 27.3107 23.9149 27.3701 23.9921C27.4294 24.0693 27.4699 24.1593 27.4883 24.2549C27.5068 24.3505 27.5026 24.4491 27.4762 24.5428C26.5393 27.6917 23.5537 29.999 20.0048 29.999Z" fill="#FF8000"/>
<path id="Vector_3" d="M25.6343 20.0176C26.6748 20.0176 27.5183 19.1741 27.5183 18.1335C27.5183 17.093 26.6748 16.2495 25.6343 16.2495C24.5938 16.2495 23.7502 17.093 23.7502 18.1335C23.7502 19.1741 24.5938 20.0176 25.6343 20.0176Z" fill="#FF8000"/>
<path id="Vector_4" d="M19.9995 36.2495C28.9741 36.2495 36.2495 28.9741 36.2495 19.9995C36.2495 11.0249 28.9741 3.74951 19.9995 3.74951C11.0249 3.74951 3.74951 11.0249 3.74951 19.9995C3.74951 28.9741 11.0249 36.2495 19.9995 36.2495Z" stroke="#FF8000" stroke-width="1.00189" stroke-miterlimit="10"/>
</g>
</svg>
