<svg width="40" height="40" viewBox="0 0 40 40" fill="none" xmlns="http://www.w3.org/2000/svg">
<g id="happy">
<path id="Vector" d="M32.3753 7.62566C30.7532 5.9875 28.8234 4.686 26.6968 3.79591C24.5702 2.90582 22.2886 2.44469 19.9833 2.43902C17.6779 2.43334 15.3941 2.88323 13.2631 3.76284C11.1322 4.64245 9.19597 5.93445 7.56582 7.5646C5.93567 9.19475 4.64367 11.1309 3.76406 13.2619C2.88446 15.3929 2.43456 17.6767 2.44024 19.982C2.44591 22.2874 2.90704 24.569 3.79713 26.6956C4.68722 28.8222 5.98873 30.752 7.62688 32.3741C9.24899 34.0123 11.1788 35.3138 13.3054 36.2039C15.432 37.094 17.7136 37.5551 20.0189 37.5607C22.3243 37.5664 24.6081 37.1165 26.7391 36.2369C28.8701 35.3573 30.8062 34.0653 32.4364 32.4352C34.0665 30.805 35.3585 28.8688 36.2381 26.7379C37.1178 24.6069 37.5676 22.3231 37.562 20.0177C37.5563 17.7123 37.0952 15.4308 36.2051 13.3042C35.315 11.1776 34.0135 9.24777 32.3753 7.62566ZM14.3761 16.2499C14.7469 16.2499 15.1095 16.3598 15.4178 16.5659C15.7261 16.7719 15.9665 17.0647 16.1084 17.4074C16.2503 17.75 16.2874 18.127 16.2151 18.4907C16.1427 18.8544 15.9642 19.1885 15.7019 19.4507C15.4397 19.7129 15.1056 19.8915 14.7419 19.9639C14.3782 20.0362 14.0012 19.9991 13.6586 19.8572C13.316 19.7152 13.0231 19.4749 12.8171 19.1666C12.6111 18.8582 12.5011 18.4957 12.5011 18.1249C12.5005 17.8785 12.5486 17.6344 12.6426 17.4066C12.7366 17.1789 12.8747 16.9719 13.0489 16.7977C13.2231 16.6234 13.4301 16.4854 13.6578 16.3913C13.8856 16.2973 14.1297 16.2493 14.3761 16.2499ZM27.4753 24.5444C26.5378 27.6929 23.5534 29.9999 20.005 29.9999C16.4566 29.9999 13.4722 27.6929 12.5269 24.5444C12.5004 24.4507 12.4963 24.352 12.5148 24.2564C12.5332 24.1607 12.5738 24.0707 12.6332 23.9935C12.6926 23.9163 12.7693 23.8541 12.857 23.8118C12.9448 23.7695 13.0412 23.7483 13.1386 23.7499H26.8644C26.9617 23.7484 27.0581 23.7697 27.1457 23.8121C27.2334 23.8544 27.3099 23.9167 27.3692 23.9938C27.4286 24.071 27.4691 24.161 27.4875 24.2566C27.5059 24.3522 27.5017 24.4507 27.4753 24.5444ZM25.6261 19.9999C25.2553 19.9999 24.8928 19.8899 24.5844 19.6839C24.2761 19.4779 24.0357 19.185 23.8938 18.8424C23.7519 18.4998 23.7148 18.1228 23.7871 17.7591C23.8595 17.3954 24.0381 17.0613 24.3003 16.7991C24.5625 16.5368 24.8966 16.3583 25.2603 16.2859C25.624 16.2136 26.001 16.2507 26.3436 16.3926C26.6863 16.5345 26.9791 16.7748 27.1851 17.0832C27.3911 17.3915 27.5011 17.754 27.5011 18.1249C27.5017 18.3713 27.4537 18.6154 27.3596 18.8431C27.2656 19.0709 27.1275 19.2779 26.9533 19.4521C26.7791 19.6263 26.5721 19.7644 26.3444 19.8584C26.1166 19.9524 25.8725 20.0005 25.6261 19.9999Z" fill="#F38820"/>
</g>
</svg>
